<?xml version="1.0" standalone="no"?>
<svg xmlns:xlink="http://www.w3.org/1999/xlink" id="wave" style="transform:rotate(180deg); transition: 0.3s" viewBox="0 0 1440 490" version="1.1" xmlns="http://www.w3.org/2000/svg"><defs><linearGradient id="sw-gradient-0" x1="0" x2="0" y1="1" y2="0"><stop stop-color="rgba(60.778, 145.522, 248.066, 1)" offset="0%"/><stop stop-color="rgba(219, 234, 254, 1)" offset="100%"/></linearGradient></defs><path style="transform:translate(0, 0px); opacity:1" fill="url(#sw-gradient-0)" d="M0,196L34.3,228.7C68.6,261,137,327,206,351.2C274.3,376,343,359,411,351.2C480,343,549,343,617,326.7C685.7,310,754,278,823,236.8C891.4,196,960,147,1029,106.2C1097.1,65,1166,33,1234,32.7C1302.9,33,1371,65,1440,73.5C1508.6,82,1577,65,1646,49C1714.3,33,1783,16,1851,65.3C1920,114,1989,229,2057,269.5C2125.7,310,2194,278,2263,261.3C2331.4,245,2400,245,2469,228.7C2537.1,212,2606,180,2674,163.3C2742.9,147,2811,147,2880,163.3C2948.6,180,3017,212,3086,196C3154.3,180,3223,114,3291,89.8C3360,65,3429,82,3497,147C3565.7,212,3634,327,3703,383.8C3771.4,441,3840,441,3909,432.8C3977.1,425,4046,408,4114,343C4182.9,278,4251,163,4320,163.3C4388.6,163,4457,278,4526,269.5C4594.3,261,4663,131,4731,81.7C4800,33,4869,65,4903,81.7L4937.1,98L4937.1,490L4902.9,490C4868.6,490,4800,490,4731,490C4662.9,490,4594,490,4526,490C4457.1,490,4389,490,4320,490C4251.4,490,4183,490,4114,490C4045.7,490,3977,490,3909,490C3840,490,3771,490,3703,490C3634.3,490,3566,490,3497,490C3428.6,490,3360,490,3291,490C3222.9,490,3154,490,3086,490C3017.1,490,2949,490,2880,490C2811.4,490,2743,490,2674,490C2605.7,490,2537,490,2469,490C2400,490,2331,490,2263,490C2194.3,490,2126,490,2057,490C1988.6,490,1920,490,1851,490C1782.9,490,1714,490,1646,490C1577.1,490,1509,490,1440,490C1371.4,490,1303,490,1234,490C1165.7,490,1097,490,1029,490C960,490,891,490,823,490C754.3,490,686,490,617,490C548.6,490,480,490,411,490C342.9,490,274,490,206,490C137.1,490,69,490,34,490L0,490Z"/></svg>